<?xml version="1.0" encoding="UTF-8" standalone="no"?>
<!DOCTYPE svg PUBLIC "-//W3C//DTD SVG 1.1//EN" "http://www.w3.org/Graphics/SVG/1.1/DTD/svg11.dtd">
<svg version="1.1" xmlns="http://www.w3.org/2000/svg" xmlns:xlink="http://www.w3.org/1999/xlink" preserveAspectRatio="xMidYMid meet" viewBox="0 0 640 640" width="640" height="640"><defs><path d="M452.59 459.67C446.22 521.49 442.68 555.84 441.97 562.71C439.14 590.52 412.77 611.79 381.28 611.68C368.13 611.68 263.01 611.68 249.87 611.68C218.37 611.79 192.01 590.52 189.18 562.71C188.47 555.84 184.93 521.49 178.55 459.67M178.86 171.78C185.23 109.96 188.77 75.61 189.48 68.74C192.3 41.03 218.49 19.8 249.87 19.77C263.07 19.77 368.68 19.77 381.88 19.77C413.38 19.66 439.74 40.93 442.58 68.74C443.29 75.61 446.83 109.96 453.2 171.78" id="c4wh1gtix1"></path><path d="M315.72 127.39C198.4 127.39 103.29 211.71 103.29 315.72C103.29 419.74 198.4 504.06 315.72 504.06C433.05 504.06 528.16 419.74 528.16 315.72C528.16 211.71 433.05 127.39 315.72 127.39Z" id="bFgpvw7La"></path><path d="M315.72 137.16L315.72 494.29" id="bkPVJKDXr"></path><path d="M315.72 157.97L315.72 318.17L471.79 398.27" id="fQQiHW7Rm"></path><path d="M407.22 202.09C324.87 202.09 279.13 202.09 269.98 202.09C234.61 202.09 205.93 227.53 205.93 258.91C205.93 290.29 234.61 315.72 269.98 315.72C279.13 315.72 352.32 315.72 361.47 315.72C396.84 315.72 425.52 341.16 425.52 372.54C425.52 403.92 396.84 429.36 361.47 429.36C351.1 429.36 299.26 429.36 205.93 429.36" id="c2i6mQKBg"></path></defs><g><g><g><use xlink:href="#c4wh1gtix1" opacity="1" fill="#000000" fill-opacity="0"></use><g><use xlink:href="#c4wh1gtix1" opacity="1" fill-opacity="0" stroke="#000000" stroke-width="15" stroke-opacity="1"></use></g></g><g><use xlink:href="#bFgpvw7La" opacity="1" fill="#000000" fill-opacity="0"></use><g><use xlink:href="#bFgpvw7La" opacity="1" fill-opacity="0" stroke="#6a6565" stroke-width="15" stroke-opacity="1"></use></g></g><g><use xlink:href="#bkPVJKDXr" opacity="1" fill="#000000" fill-opacity="0"></use><g><use xlink:href="#bkPVJKDXr" opacity="1" fill-opacity="0" stroke="#b93a38" stroke-width="10" stroke-opacity="1"></use></g></g><g><use xlink:href="#fQQiHW7Rm" opacity="1" fill="#000000" fill-opacity="0"></use><g><use xlink:href="#fQQiHW7Rm" opacity="1" fill-opacity="0" stroke="#463f3f" stroke-width="10" stroke-opacity="1"></use></g></g><g><use xlink:href="#c2i6mQKBg" opacity="1" fill="#000000" fill-opacity="0"></use><g><use xlink:href="#c2i6mQKBg" opacity="1" fill-opacity="0" stroke="#b93a38" stroke-width="15" stroke-opacity="1"></use></g></g></g></g></svg>